<svg xmlns="http://www.w3.org/2000/svg" xmlns:xlink="http://www.w3.org/1999/xlink" viewBox="0 0 81 81" fill="#fff" fill-rule="evenodd" stroke="#000" stroke-linecap="round" stroke-linejoin="round"><use xlink:href="#A" href="#A" x=".5" y=".5"/><symbol id="A" overflow="visible"><g stroke="none"><path fill="#de8500" d="M40 80c3.947 0 7.469-1.516 10.133-4L75.2 50.988C78.155 48.263 80 44.355 80 40v37.333Q80 80 77.333 80z"/><path fill="#f90" d="M40 80c3.947 0 7.469-1.516 10.133-4L75.2 50.988C78.155 48.263 80 44.355 80 40V2.667Q80 0 77.333 0H40a14.9 14.9 0 0 0-13.249 8.015 14.9 14.9 0 0 0-15.036 3.7 14.9 14.9 0 0 0-3.7 15.036A14.9 14.9 0 0 0 0 40v37.333Q0 80 2.667 80z"/><path d="M75.2 40v33.333Q75.2 76 72.533 76H40 7.467Q4.8 76 4.8 73.333V40a10.11 10.11 0 0 1 10.133-10.133 10.39 10.39 0 0 1 .652.02 10.4 10.4 0 0 1-.475-.447 10.11 10.11 0 0 1 0-14.331 10.11 10.11 0 0 1 14.331 0 10.37 10.37 0 0 1 .447.475 10.39 10.39 0 0 1-.02-.652A10.11 10.11 0 0 1 40 4.8a10.11 10.11 0 0 1 10.133 10.133l-.02.652a10.48 10.48 0 0 1 .447-.475 10.11 10.11 0 0 1 14.331 0 10.11 10.11 0 0 1 0 14.331 10.4 10.4 0 0 1-.475.447 10.39 10.39 0 0 1 .652-.02A10.11 10.11 0 0 1 75.2 40z" fill="#000"/><path d="M9.333 40h61.333a5.59 5.59 0 0 0-5.6-5.6c-1.39 0-2.658.501-3.635 1.333H50.3l7.871-7.871a5.58 5.58 0 0 0 3.513-1.627 5.59 5.59 0 1 0-7.92-7.92 5.58 5.58 0 0 0-1.627 3.513l-7.871 7.871V18.568c.832-.977 1.333-2.245 1.333-3.635a5.59 5.59 0 1 0-11.2 0c0 1.39.501 2.658 1.333 3.635v11.131l-7.871-7.871a5.58 5.58 0 0 0-1.627-3.513 5.59 5.59 0 1 0-7.92 7.92 5.58 5.58 0 0 0 3.513 1.627l7.871 7.871H18.568c-.977-.832-2.245-1.333-3.635-1.333a5.59 5.59 0 0 0-5.6 5.6z"/><path d="M72 61.333V48q0-4-4-4H12q-4 0-4 4v8c32 0 46.933 5.333 64 5.333z" fill="#3f3f3f"/></g><path d="M36 42.667l4 18.4 3.733-18.4H49.2l-6.667 31.467h-5.2l-6.667-31.467H36z"/><path d="M21.066 48c-1.867 0-3.733 1.867-3.733 3.733s1.733 3.733 3.467 3.733c6.4 0 9.6 4.933 9.6 9.867 0 4.4-4 8.8-9.333 8.8S12 69.6 12 65.067h5.067c.267 2.133 2.133 4 4.267 4s4-1.867 4-3.733c0-2.667-1.867-4.267-4.533-4.267-4.533 0-9.067-4.267-9.067-9.6 0-4.533 4-9.067 9.333-9.067 5.867 0 9.6 4.667 9.6 9.333h-5.6c0-2.133-2-3.733-4-3.733zm41.6 17.6c0 1.733-1.867 3.467-4 3.467-2.4 0-4-2-4-4V51.734c0-2.4 1.867-3.733 3.733-3.733 2.4 0 4 1.867 4 3.733H68c0-4.533-3.2-9.067-9.6-9.067-4.667 0-9.067 3.733-9.067 9.067v13.333c0 5.067 4.533 9.067 9.333 9.067C64 74.134 68 69.6 68 65.6v-9.867h-9.333v5.333h4z"/><path fill="#ffb13b" d="M40 0a14.9 14.9 0 0 0-13.249 8.015 14.9 14.9 0 0 0-15.036 3.7 14.9 14.9 0 0 0-3.7 15.036A14.9 14.9 0 0 0 0 40V2.667Q0 0 2.667 0z" stroke="none"/></symbol></svg>