<svg xmlns="http://www.w3.org/2000/svg" xmlns:xlink="http://www.w3.org/1999/xlink" viewBox="0 0 90.313 85" fill="#fff" fill-rule="evenodd" stroke="#000" stroke-linecap="round" stroke-linejoin="round"><use xlink:href="#D" x="2.656" y="2.5"/><defs><linearGradient id="A" x1="0%" y1="0%" x2="100%" y2="100%"><stop offset="0%" stop-color="#f9a03c"/><stop offset="100%" stop-color="#f7974e"/></linearGradient><linearGradient id="B" x1="0%" y1="0%" x2="100%" y2="100%"><stop offset="0%" stop-color="#b84e51"/><stop offset="100%" stop-color="#f68e48"/></linearGradient><linearGradient id="C" x1="0%" y1="0%" x2="100%" y2="100%"><stop offset="0%" stop-color="#f26d58"/><stop offset="100%" stop-color="#f9a03c"/></linearGradient></defs><symbol id="D" overflow="visible"><g stroke="none"><path d="M27.111 49.156l13.133 13.047C33.04 72.947 20.735 80 6.711 80H0V62.222h6.711c9.103 0 16.902-5.348 20.401-13.066zm18.708 18.586L58.158 80H31.942c5.423-2.905 10.159-7.112 13.877-12.258z" fill="url(#A)"/><path d="M58.158 31.111l26.751 26.576.091-2.131A24.27 24.27 0 0 0 79.404 40 24.27 24.27 0 0 0 85 24.444C85 10.902 74.026 0 60.395 0H31.942c7.254 3.886 13.278 10.102 17.283 17.778h11.169c3.718 0 6.711 2.973 6.711 6.667s-2.993 6.667-6.711 6.667z" fill="url(#B)"/><path d="M27.111 49.156l13.133 13.047c4.254-6.345 6.729-13.976 6.729-22.204 0-22.16-17.957-40-40.263-40H0v17.778h6.711c12.392 0 22.368 9.911 22.368 22.222 0 3.268-.703 6.367-1.968 9.156zm31.047-18.045H53.78c.524 2.871.799 5.843.799 8.889s-.275 6.018-.799 8.889h6.614c3.718 0 6.711 2.973 6.711 6.667s-2.993 6.667-6.711 6.667H49.225c-1.011 1.938-2.151 3.782-3.406 5.52L58.158 80h2.237c12.908 0 23.434-9.776 24.514-22.313z" fill="url(#C)"/></g></symbol></svg>